<?xml version="1.0" encoding="utf-8"?>
<!-- Generator: Adobe Illustrator 22.0.1, SVG Export Plug-In . SVG Version: 6.00 Build 0)  -->
<svg version="1.1" id="Layer_1" xmlns="http://www.w3.org/2000/svg" xmlns:xlink="http://www.w3.org/1999/xlink" x="0px" y="0px"
	 viewBox="0 0 397.8 486.8" style="enable-background:new 0 0 397.8 486.8;" xml:space="preserve">
<style type="text/css">
	.st0{fill:#FFFFFF;}
</style>
<g>
	<path class="st0" d="M247.4,223.8c0,0,26.6,34.1,29,45.9s-5.7,43.2-5.7,43.2s17.1-25.3,17.2-45.9c0.1-20.5-31-76.2-31-76.2
		L247.4,223.8z"/>
	<path class="st0" d="M150.5,223.8l-9.4-33.1c0,0-31.1,55.7-31,76.2s17.2,45.9,17.2,45.9s-8.1-31.4-5.7-43.2
		C123.9,257.9,150.5,223.8,150.5,223.8z"/>
	<path class="st0" d="M397.3,94.1L352.9,2.8c-1.2-2.4-4.1-3.5-6.5-2.4l-0.5,0.2l-81.6,20c-4.7,1.2-9.5,1.7-14.4,1.7h-102
		c-4.8,0-9.7-0.6-14.4-1.7l-81.8-20l-0.3-0.1c-2.5-1.1-5.3-0.1-6.5,2.4L0.5,94.2c-0.9,1.8-0.6,4.1,0.8,5.6l116.3,123.8
		c7.8-17.2,16.4-32.6,18-35.7l3-5.4l-15.9-56c-0.6-2.1-0.6-4.4,0.1-6.5l3,1l-3-1l26-63l-20.3,64.9l0,0c-0.3,1-0.3,2-0.1,2.9
		l36.7,129.1c0.2,0.5,0.3,1.1,0.3,1.6l15.5,124.3l7.6,77.3c0.1,1.2,0,2.5-0.3,3.7l-3.2,13c-0.5,1.9,0.2,3.9,1.8,5.1l8.8,6.8
		c1.8,1.4,4.3,1.4,6.1,0l8.8-6.8c1.5-1.2,2.2-3.2,1.8-5.1l-3.2-13c-0.3-1.2-0.4-2.5-0.3-3.7l7.6-77.4l15.5-125.1
		c0.1-0.6,0.2-1.1,0.3-1.7l37.2-128.2c0.3-1,0.3-2-0.1-2.9l-20.2-64.9l26,63l-3,1l3-1c0.7,2.1,0.8,4.4,0.1,6.5l-16,56.1l3,5.3
		c1.7,3,10.2,18.4,18,35.6L396.5,99.7C397.9,98.2,398.2,95.9,397.3,94.1z"/>
</g>
</svg>
