<?xml version="1.0" encoding="utf-8"?>
<!-- Generator: Adobe Illustrator 22.0.1, SVG Export Plug-In . SVG Version: 6.00 Build 0)  -->
<svg version="1.1" id="Layer_1" xmlns="http://www.w3.org/2000/svg" xmlns:xlink="http://www.w3.org/1999/xlink" x="0px" y="0px"
	 viewBox="0 0 1440 312" style="enable-background:new 0 0 1440 312;" xml:space="preserve">
<style type="text/css">
	.st0{fill:#222323;}
</style>
<g>
	<path class="st0" d="M21.9,203.7c8.6,15.9,25.8,29.7,41.3,29.7c13.3,0,18.9-5.6,18.9-13.3c0-30.5-122.5-31.4-122.5-127.3
		c0-57.2,41.7-92.9,104.1-92.9c69.2,0,94.6,49.4,102.8,73.1l-70.9,31.8c-6-12.5-13.3-27.5-34-27.5c-10.3,0-16.3,5.6-16.3,13.8
		c0,33.5,123.4,31.8,123.4,122.5c0,57.6-38.3,98.5-107.9,98.5c-70.9,0-102.3-52-110.1-73.1L21.9,203.7z"/>
	<path class="st0" d="M248.1,5.5h117.4c64.1,0,101.5,39.6,101.5,100.2c0,59.3-39.6,101-100.2,101h-33.1v99.8h-85.6V5.5z
		 M351.7,134.9c18.1,0,27.5-12.5,27.5-29.7c0-16.3-10.3-27.9-26.7-27.9h-18.9v57.6H351.7z"/>
	<path class="st0" d="M527.1,155.6c0-86.9,63.2-155.7,162.5-155.7c99.3,0,162.5,68.8,162.5,155.7c0,88.1-63.2,156.5-162.5,156.5
		C590.4,312.1,527.1,243.7,527.1,155.6z M616.6,155.6c0,45.1,29.2,78.3,73.1,78.3s73.1-33.1,73.1-78.3c0-43.9-29.2-77.4-73.1-77.4
		S616.6,111.7,616.6,155.6z"/>
	<path class="st0" d="M930.1,5.5h87.3l96.7,170.7V5.5h84.3v301h-85.1l-99.3-168.1v168.1h-83.8V5.5z"/>
	<path class="st0" d="M1342.8,203.7c8.6,15.9,25.8,29.7,41.3,29.7c13.3,0,18.9-5.6,18.9-13.3c0-30.5-122.5-31.4-122.5-127.3
		c0-57.2,41.7-92.9,104.1-92.9c69.2,0,94.6,49.4,102.8,73.1l-70.9,31.8c-6-12.5-13.3-27.5-34-27.5c-10.3,0-16.3,5.6-16.3,13.8
		c0,33.5,123.4,31.8,123.4,122.5c0,57.6-38.3,98.5-107.9,98.5c-70.9,0-102.3-52-110.1-73.1L1342.8,203.7z"/>
</g>
</svg>
