<?xml version="1.0" encoding="utf-8"?>
<!-- Generator: Adobe Illustrator 22.0.1, SVG Export Plug-In . SVG Version: 6.00 Build 0)  -->
<svg version="1.1" id="Layer_1" xmlns="http://www.w3.org/2000/svg" xmlns:xlink="http://www.w3.org/1999/xlink" x="0px" y="0px"
	 viewBox="0 0 1440 300" style="enable-background:new 0 0 1440 300;" xml:space="preserve">
<style type="text/css">
	.st0{fill:#EB5857;}
</style>
<g>
	<path class="st0" d="M-45.4-0.5H72c64.1,0,101.5,39.6,101.5,100.2c0,59.3-39.6,101-100.2,101H40.2v99.8h-85.6V-0.5z M58.2,128.9
		c18.1,0,27.5-12.5,27.5-29.7c0-16.3-10.3-27.9-26.7-27.9H40.2v57.6H58.2z"/>
	<path class="st0" d="M248.7-0.5h85.6v113.1h95.5V-0.5h85.6v301h-85.6V187.8h-95.5v112.7h-85.6V-0.5z"/>
	<path class="st0" d="M608.2-0.5h117.4c64.1,0,101.5,39.6,101.5,100.2c0,59.3-39.6,101-100.2,101h-33.1v99.8h-85.6V-0.5z
		 M711.8,128.9c18.1,0,27.5-12.5,27.5-29.7c0-16.3-10.3-27.9-26.7-27.9h-18.9v57.6H711.8z"/>
	<path class="st0" d="M953.1,242.9L935,300.5h-86l104.1-301h90.3l104.1,301h-86l-18.1-57.6H953.1z M998.2,88.1l-24.9,86.4h49.9
		L998.2,88.1z"/>
	<path class="st0" d="M1217.1-0.5h87.3l96.7,170.7V-0.5h84.3v301h-85.1l-99.3-168.1v168.1h-83.8V-0.5z"/>
</g>
</svg>
